<?xml version="1.0" standalone="no"?>
<!DOCTYPE svg PUBLIC "-//W3C//DTD SVG 20010904//EN"
 "http://www.w3.org/TR/2001/REC-SVG-20010904/DTD/svg10.dtd">
<svg version="1.0" xmlns="http://www.w3.org/2000/svg"
 width="767.000000pt" height="874.000000pt" viewBox="0 0 767.000000 874.000000"
 preserveAspectRatio="xMidYMid meet">

<g transform="translate(0.000000,874.000000) scale(0.100000,-0.100000)"
fill="#000000" stroke="none">
<path d="M480 4810 l0 -90 3385 0 c1862 0 3385 3 3385 8 0 4 -11 27 -25 51
-15 25 -25 59 -25 82 l0 39 -3360 0 -3360 0 0 -90z"/>
<path d="M1090 4670 l0 -30 -309 0 -309 0 -4 -25 c-3 -14 -3 -36 0 -50 l4 -25
312 -3 311 -2 -314 -3 -313 -2 6 -22 c3 -13 6 -26 6 -30 0 -4 138 -9 308 -11
l307 -2 -307 -3 -308 -2 0 -90 0 -90 3360 0 3360 0 0 25 c0 14 7 37 16 51 16
23 16 27 -2 64 l-19 40 -2300 2 -2300 3 2303 3 2302 2 0 30 0 30 -2297 2
-2298 3 2316 5 c2541 5 2349 0 2349 66 l0 34 -2325 0 c-1543 0 -2325 3 -2325
10 0 6 -43 10 -109 10 -101 0 -110 2 -116 20 -5 16 -15 20 -46 20 -28 0 -39
-4 -39 -15 0 -14 11 -19 38 -16 6 1 12 -5 12 -14 0 -13 -50 -15 -440 -15
l-440 0 0 30 0 30 -195 0 -195 0 0 -30z m1078 -137 c-125 -2 -332 -2 -460 0
-128 1 -26 2 227 2 253 0 358 -1 233 -2z m5 -70 c-128 -2 -338 -2 -465 0 -128
1 -24 2 232 2 256 0 360 -1 233 -2z"/>
</g>
</svg>
